<svg width="63" height="34" viewBox="0 0 63 34" fill="none" xmlns="http://www.w3.org/2000/svg">
<path id="Union" fill-rule="evenodd" clip-rule="evenodd" d="M0.852164 16.958C0.852164 16.5438 1.18795 16.208 1.60216 16.208L60.1282 16.208L45.3714 1.45123C45.0785 1.15834 45.0785 0.683462 45.3714 0.390568C45.6643 0.0976737 46.1392 0.0976749 46.4321 0.390568L62.4469 16.4054C62.4546 16.4125 62.4622 16.4197 62.4696 16.4272C62.6087 16.5663 62.6818 16.7465 62.6887 16.9288C62.6967 17.1305 62.6237 17.3348 62.4696 17.4888C62.4619 17.4966 62.454 17.5041 62.446 17.5115L46.432 33.5254C46.1391 33.8183 45.6643 33.8183 45.3714 33.5254C45.0785 33.2326 45.0785 32.7577 45.3714 32.4648L60.1282 17.708L1.60216 17.708C1.18795 17.708 0.852164 17.3722 0.852164 16.958Z" fill="white"/>
</svg>
