<svg width="63" height="34" viewBox="0 0 63 34" fill="none" xmlns="http://www.w3.org/2000/svg">
<path id="Union" fill-rule="evenodd" clip-rule="evenodd" d="M62.7499 16.958C62.7499 17.3722 62.4141 17.708 61.9999 17.708L3.47387 17.708L18.2307 32.4648C18.5235 32.7577 18.5235 33.2326 18.2307 33.5254C17.9378 33.8183 17.4629 33.8183 17.17 33.5254L1.15522 17.5107C1.14751 17.5036 1.13992 17.4963 1.13244 17.4888C0.992167 17.3485 0.91907 17.1665 0.91316 16.9827C0.906465 16.7825 0.979548 16.5801 1.13241 16.4272C1.14015 16.4195 1.14801 16.4119 1.15599 16.4046L17.17 0.390569C17.4629 0.0976759 17.9378 0.0976745 18.2307 0.390569C18.5236 0.683463 18.5236 1.15834 18.2307 1.45123L3.47391 16.208L61.9999 16.208C62.4141 16.208 62.7499 16.5438 62.7499 16.958Z" fill="white"/>
</svg>
