<svg width="31" height="22" viewBox="0 0 31 22" fill="none" xmlns="http://www.w3.org/2000/svg">
<path d="M29.9924 3.75823C29.6494 2.48434 28.645 1.47992 27.3711 1.13695C25.0438 0.5 15.7345 0.5 15.7345 0.5C15.7345 0.5 6.4253 0.5 4.09799 1.11245C2.8486 1.45542 1.81968 2.48434 1.47671 3.75823C0.864258 6.08554 0.864258 10.9117 0.864258 10.9117C0.864258 10.9117 0.864258 15.7623 1.47671 18.0651C1.81968 19.339 2.8241 20.3434 4.09799 20.6864C6.4498 21.3233 15.7345 21.3233 15.7345 21.3233C15.7345 21.3233 25.0438 21.3233 27.3711 20.7109C28.645 20.3679 29.6494 19.3635 29.9924 18.0896C30.6048 15.7623 30.6048 10.9361 30.6048 10.9361C30.6048 10.9361 30.6293 6.08554 29.9924 3.75823Z" fill="white"/>
<path d="M12.7705 15.3704L20.5119 10.9118L12.7705 6.45312V15.3704Z" fill="#192864"/>
</svg>
