<svg width="28" height="28" viewBox="0 0 28 28" fill="none" xmlns="http://www.w3.org/2000/svg">
<g clip-path="url(#clip0_1_4362)">
<path d="M14.3643 2.72998C17.9711 2.72998 18.3944 2.74606 19.82 2.81037C21.1384 2.86932 21.8512 3.08905 22.3281 3.27663C22.9605 3.52315 23.4107 3.81256 23.8823 4.28417C24.354 4.75579 24.6487 5.20597 24.8899 5.83836C25.0721 6.31533 25.2972 7.02812 25.3561 8.3465C25.4205 9.77206 25.4365 10.1954 25.4365 13.8022C25.4365 17.409 25.4205 17.8324 25.3561 19.258C25.2972 20.5763 25.0775 21.2891 24.8899 21.7661C24.6434 22.3985 24.354 22.8487 23.8823 23.3203C23.4107 23.7919 22.9605 24.0867 22.3281 24.3278C21.8512 24.5101 21.1384 24.7351 19.82 24.7941C18.3944 24.8584 17.9711 24.8745 14.3643 24.8745C10.7575 24.8745 10.3341 24.8584 8.90853 24.7941C7.59015 24.7351 6.87736 24.5154 6.40039 24.3278C5.76799 24.0813 5.31781 23.7919 4.8462 23.3203C4.37458 22.8487 4.07982 22.3985 3.83865 21.7661C3.65644 21.2891 3.43135 20.5763 3.3724 19.258C3.30809 17.8324 3.29201 17.409 3.29201 13.8022C3.29201 10.1954 3.30809 9.77206 3.3724 8.3465C3.43135 7.02812 3.65108 6.31533 3.83865 5.83836C4.08518 5.20597 4.37458 4.75579 4.8462 4.28417C5.31781 3.81256 5.76799 3.5178 6.40039 3.27663C6.87736 3.09441 7.59015 2.86932 8.90853 2.81037C10.3341 2.7407 10.7628 2.72998 14.3643 2.72998ZM14.3643 0.296875C10.6985 0.296875 10.2376 0.312953 8.79598 0.377264C7.3597 0.441575 6.37895 0.672024 5.52147 1.0043C4.63183 1.34729 3.88153 1.81355 3.13123 2.56385C2.38093 3.31414 1.92003 4.0698 1.57168 4.95408C1.23941 5.81156 1.00896 6.79231 0.944647 8.23395C0.880336 9.67024 0.864258 10.1311 0.864258 13.7969C0.864258 17.4626 0.880336 17.9235 0.944647 19.3652C1.00896 20.8014 1.23941 21.7822 1.57168 22.645C1.91468 23.5347 2.38093 24.285 3.13123 25.0353C3.88153 25.7856 4.63719 26.2465 5.52147 26.5948C6.37895 26.9271 7.3597 27.1575 8.80134 27.2218C10.243 27.2862 10.6985 27.3022 14.3696 27.3022C18.0407 27.3022 18.4963 27.2862 19.9379 27.2218C21.3742 27.1575 22.3549 26.9271 23.2178 26.5948C24.1074 26.2518 24.8577 25.7856 25.608 25.0353C26.3583 24.285 26.8192 23.5293 27.1676 22.645C27.4998 21.7875 27.7303 20.8068 27.7946 19.3652C27.8589 17.9235 27.875 17.468 27.875 13.7969C27.875 10.1258 27.8589 9.67024 27.7946 8.22859C27.7303 6.79231 27.4998 5.81156 27.1676 4.94872C26.8246 4.05908 26.3583 3.30878 25.608 2.55849C24.8577 1.80819 24.1021 1.34729 23.2178 0.998939C22.3603 0.666665 21.3796 0.436216 19.9379 0.371905C18.4909 0.312953 18.03 0.296875 14.3643 0.296875Z" fill="white"/>
<path d="M14.3643 2.72998C17.9711 2.72998 18.3944 2.74606 19.82 2.81037C21.1384 2.86932 21.8512 3.08905 22.3281 3.27663C22.9605 3.52315 23.4107 3.81256 23.8823 4.28417C24.354 4.75579 24.6487 5.20597 24.8899 5.83836C25.0721 6.31533 25.2972 7.02812 25.3561 8.3465C25.4205 9.77206 25.4365 10.1954 25.4365 13.8022C25.4365 17.409 25.4205 17.8324 25.3561 19.258C25.2972 20.5763 25.0775 21.2891 24.8899 21.7661C24.6434 22.3985 24.354 22.8487 23.8823 23.3203C23.4107 23.7919 22.9605 24.0867 22.3281 24.3278C21.8512 24.5101 21.1384 24.7351 19.82 24.7941C18.3944 24.8584 17.9711 24.8745 14.3643 24.8745C10.7575 24.8745 10.3341 24.8584 8.90853 24.7941C7.59015 24.7351 6.87736 24.5154 6.40039 24.3278C5.76799 24.0813 5.31781 23.7919 4.8462 23.3203C4.37458 22.8487 4.07982 22.3985 3.83865 21.7661C3.65644 21.2891 3.43135 20.5763 3.3724 19.258C3.30809 17.8324 3.29201 17.409 3.29201 13.8022C3.29201 10.1954 3.30809 9.77206 3.3724 8.3465C3.43135 7.02812 3.65108 6.31533 3.83865 5.83836C4.08518 5.20597 4.37458 4.75579 4.8462 4.28417C5.31781 3.81256 5.76799 3.5178 6.40039 3.27663C6.87736 3.09441 7.59015 2.86932 8.90853 2.81037C10.3341 2.7407 10.7628 2.72998 14.3643 2.72998Z" fill="white"/>
<path d="M14.3646 6.86719C10.5381 6.86719 7.42969 9.9702 7.42969 13.8021C7.42969 17.634 10.5327 20.737 14.3646 20.737C18.1965 20.737 21.2995 17.634 21.2995 13.8021C21.2995 9.9702 18.1965 6.86719 14.3646 6.86719ZM14.3646 18.2985C11.8779 18.2985 9.8628 16.2834 9.8628 13.7967C9.8628 11.31 11.8779 9.29494 14.3646 9.29494C16.8513 9.29494 18.8664 11.31 18.8664 13.7967C18.8664 16.2834 16.8513 18.2985 14.3646 18.2985Z" fill="black"/>
<path d="M21.5726 8.20721C22.4665 8.20721 23.1911 7.48259 23.1911 6.58871C23.1911 5.69484 22.4665 4.97021 21.5726 4.97021C20.6787 4.97021 19.9541 5.69484 19.9541 6.58871C19.9541 7.48259 20.6787 8.20721 21.5726 8.20721Z" fill="black"/>
</g>
<defs>
<clipPath id="clip0_1_4362">
<rect width="27" height="27" fill="white" transform="translate(0.864258 0.296875)"/>
</clipPath>
</defs>
</svg>
