<svg width="20" height="21" viewBox="0 0 20 21" fill="none" xmlns="http://www.w3.org/2000/svg">
<path id="Union" fill-rule="evenodd" clip-rule="evenodd" d="M15.3734 15.1387C18.524 11.6722 18.4254 6.30572 15.0777 2.95802C11.6285 -0.491216 6.03617 -0.491216 2.58693 2.95802C-0.86231 6.40726 -0.86231 11.9996 2.58693 15.4488C5.88269 18.7446 11.1351 18.8912 14.6049 15.8888L18.9934 20.2773C19.2031 20.4869 19.543 20.4869 19.7527 20.2773C19.9623 20.0676 19.9623 19.7277 19.7527 19.518L15.3734 15.1387ZM14.3185 3.71724C17.3484 6.74718 17.3484 11.6597 14.3185 14.6896C11.2886 17.7195 6.37608 17.7195 3.34615 14.6896C0.316217 11.6597 0.316217 6.74718 3.34615 3.71724C6.37608 0.68731 11.2886 0.687311 14.3185 3.71724Z" fill="white"/>
</svg>
