<svg width="35" height="36" viewBox="0 0 35 36" fill="none" xmlns="http://www.w3.org/2000/svg">
<path fill-rule="evenodd" clip-rule="evenodd" d="M34.0004 0.964355C34.4473 0.964355 34.8097 1.32667 34.8097 1.77361V34.5751C34.8097 35.022 34.4473 35.3843 34.0004 35.3843C33.9892 35.3843 33.9781 35.3841 33.967 35.3836H1.1989C0.751962 35.3836 0.389648 35.0213 0.389648 34.5744C0.389648 34.1274 0.751962 33.7651 1.1989 33.7651L32.5845 33.7651L1.28634 2.46693C0.970308 2.15089 0.970308 1.63851 1.28634 1.32247C1.60237 1.00644 2.11476 1.00644 2.43079 1.32247L33.1912 32.0828V1.77361C33.1912 1.32667 33.5535 0.964355 34.0004 0.964355Z" fill="#FFED00"/>
</svg>
