<svg width="30" height="25" viewBox="0 0 30 25" fill="none" xmlns="http://www.w3.org/2000/svg">
<path id="Union" fill-rule="evenodd" clip-rule="evenodd" d="M19.8207 0.791203L19.5749 0.675781L19.3308 0.794722L15.114 2.84933L10.8668 0.801118L10.6219 0.683L10.3763 0.799851L1.45772 5.04417L0.400906 5.5471L1.45018 6.06559L4.89422 7.76741L1.42563 9.42202L0.34375 9.93811L1.42855 10.448L5.54888 12.3848V19.1501V19.5063L5.86955 19.6612L14.8687 24.0096L15.1148 24.1285L15.3611 24.0103L24.2414 19.7512L24.5636 19.5967V19.2394V12.4632L28.7568 10.4073L29.818 9.88696L28.7484 9.38398L25.2813 7.75345L28.7674 6.00779L29.8137 5.48386L28.7545 4.98647L19.8207 0.791203ZM6.68412 18.794V12.9185L10.3937 14.6622L10.6381 14.777L10.8813 14.66L14.5481 12.8956V22.5939L6.68412 18.794ZM15.6833 22.5968V12.922L19.3106 14.7844L19.564 14.9145L19.8197 14.7891L23.4283 13.0198V18.8821L15.6833 22.5968ZM16.4162 3.47767L19.584 1.9342L27.2128 5.51665L23.9772 7.13684L16.4162 3.47767ZM15.1139 4.10962L15.1166 4.11091L15.1176 4.1104L22.6872 7.77372L15.1245 11.359L15.1239 11.3587L15.1144 11.3632L7.50533 7.77371L15.1139 4.10962ZM13.8066 3.47917L10.6186 1.94178L3.00236 5.56631L6.19583 7.14432L13.8066 3.47917ZM6.18858 8.40775L2.99629 9.93056L10.6323 13.52L13.7972 11.9971L6.18858 8.40775ZM16.3967 12.0122L19.5757 13.6444L27.1958 9.9083L24.0024 8.40654L16.3967 12.0122Z" fill="white"/>
</svg>
