<svg width="25" height="20" viewBox="0 0 25 20" fill="none" xmlns="http://www.w3.org/2000/svg">
<path fill-rule="evenodd" clip-rule="evenodd" d="M2.25534 8.47625C8.69778 5.79491 12.9937 4.02721 15.1432 3.17314C21.2805 0.734611 22.5558 0.311012 23.387 0.297024C23.5698 0.293948 23.9785 0.337228 24.2433 0.542469C24.4669 0.71577 24.5284 0.949876 24.5578 1.11418C24.5873 1.27849 24.6239 1.65279 24.5948 1.94526C24.2622 5.28342 22.8232 13.3843 22.091 17.1231C21.7812 18.7051 21.1713 19.2355 20.5807 19.2875C19.2974 19.4003 18.3229 18.4773 17.0799 17.6989C15.1348 16.4809 14.036 15.7227 12.148 14.5342C9.96611 13.1607 11.3805 12.4057 12.624 11.172C12.9494 10.8491 18.6039 5.93593 18.7134 5.49022C18.7271 5.43448 18.7398 5.2267 18.6105 5.11698C18.4813 5.00727 18.2906 5.04478 18.153 5.07462C17.9579 5.11692 14.8507 7.07883 8.83131 10.9604C7.94933 11.5389 7.15046 11.8208 6.43471 11.806C5.64564 11.7897 4.1278 11.3798 2.99944 11.0294C1.61546 10.5997 0.515501 10.3725 0.611283 9.64261C0.661172 9.26245 1.20919 8.87366 2.25534 8.47625Z" fill="white"/>
</svg>
